STARTFONT 2.3
FONT -FontForge-Indie Flower-Book-R-Normal--18-180-72-72-P-82-ISO10646-1
SIZE 18 72 72  2
FONTBOUNDINGBOX 23 26 -3 -9
COMMENT "Generated by fontforge, http://fontforge.sourceforge.net"
COMMENT "Copyright (c) 2010, Kimberly Geswein (kimberlygeswein.com)"
STARTPROPERTIES 40
FOUNDRY "FontForge"
FAMILY_NAME "Indie Flower"
WEIGHT_NAME "Book"
SLANT "R"
SETWIDTH_NAME "Normal"
ADD_STYLE_NAME ""
PIXEL_SIZE 18
POINT_SIZE 180
RESOLUTION_X 72
RESOLUTION_Y 72
SPACING "P"
AVERAGE_WIDTH 82
CHARSET_REGISTRY "ISO10646"
CHARSET_ENCODING "1"
FONTNAME_REGISTRY ""
CHARSET_COLLECTIONS "ISO8859-2 ISO8859-9 ISO8859-4 ISO10646-1"
BITS_PER_PIXEL 2
FONT_NAME "IndieFlower"
FACE_NAME "Indie Flower"
COPYRIGHT "Copyright (c) 2010, Kimberly Geswein (kimberlygeswein.com)"
FONT_VERSION "1.001 2010"
FONT_ASCENT 14
FONT_DESCENT 4
UNDERLINE_POSITION -2
UNDERLINE_THICKNESS 1
X_HEIGHT 6
CAP_HEIGHT 9
RAW_ASCENT 799
RAW_DESCENT 200
NORM_SPACE 7
RELATIVE_WEIGHT 40
RELATIVE_SETWIDTH 50
SUPERSCRIPT_X 0
SUPERSCRIPT_Y 8
SUPERSCRIPT_SIZE 11
SUBSCRIPT_X 0
SUBSCRIPT_Y 2
SUBSCRIPT_SIZE 11
AVG_LOWERCASE_WIDTH 80
AVG_UPPERCASE_WIDTH 95
ENDPROPERTIES
CHARS 356
STARTCHAR space
ENCODING 32
SWIDTH 375 0
DWIDTH 7 0
BBX 1 1 0 0
BITMAP
00
ENDCHAR
STARTCHAR exclam
ENCODING 33
SWIDTH 149 0
DWIDTH 3 0
BBX 3 15 0 0
BITMAP
50
60
60
60
60
60
60
60
60
60
10
00
00
60
B4
ENDCHAR
STARTCHAR quotedbl
ENCODING 34
SWIDTH 234 0
DWIDTH 4 0
BBX 4 5 0 9
BITMAP
85
96
96
66
26
ENDCHAR
STARTCHAR numbersign
ENCODING 35
SWIDTH 768 0
DWIDTH 14 0
BBX 14 9 0 0
BITMAP
00104000
00248000
0029EA40
16BEE540
B9189540
006FFA90
1AAC9000
000CA000
00005000
ENDCHAR
STARTCHAR dollar
ENCODING 36
SWIDTH 581 0
DWIDTH 10 0
BBX 10 17 0 0
BITMAP
001000
002200
003300
007F00
02B740
062200
02A600
00A900
007E00
006D80
009860
509830
749830
1AE870
01F9D0
00EE40
009400
ENDCHAR
STARTCHAR percent
ENCODING 37
SWIDTH 636 0
DWIDTH 11 0
BBX 11 11 0 0
BITMAP
000050
190080
664240
918500
925800
292050
00A1A8
00C20C
028518
030974
050290
ENDCHAR
STARTCHAR ampersand
ENCODING 38
SWIDTH 457 0
DWIDTH 8 0
BBX 8 13 0 0
BITMAP
0100
0780
0780
0780
0740
0705
0A29
1E24
26B0
60E0
91E0
9764
7D04
ENDCHAR
STARTCHAR quotesingle
ENCODING 39
SWIDTH 102 0
DWIDTH 2 0
BBX 2 4 0 9
BITMAP
80
90
90
60
ENDCHAR
STARTCHAR parenleft
ENCODING 40
SWIDTH 421 0
DWIDTH 8 0
BBX 8 12 0 -1
BITMAP
0014
00A9
0240
0900
2800
3000
6000
9000
9000
6000
2D40
0680
ENDCHAR
STARTCHAR parenright
ENCODING 41
SWIDTH 290 0
DWIDTH 5 0
BBX 5 12 0 -1
BITMAP
2400
1D00
0700
0240
0180
00C0
0180
0240
0700
1D00
7800
A000
ENDCHAR
STARTCHAR asterisk
ENCODING 42
SWIDTH 412 0
DWIDTH 7 0
BBX 7 7 0 4
BITMAP
0018
2BA0
0FE4
7FE0
29E0
20F4
0080
ENDCHAR
STARTCHAR plus
ENCODING 43
SWIDTH 459 0
DWIDTH 8 0
BBX 8 8 0 0
BITMAP
0100
0300
0340
07A5
BBE9
0180
0180
0180
ENDCHAR
STARTCHAR comma
ENCODING 44
SWIDTH 130 0
DWIDTH 2 0
BBX 2 7 0 -4
BITMAP
50
A0
60
60
90
80
40
ENDCHAR
STARTCHAR hyphen
ENCODING 45
SWIDTH 375 0
DWIDTH 7 0
BBX 6 2 0 4
BITMAP
2AA0
6550
ENDCHAR
STARTCHAR period
ENCODING 46
SWIDTH 204 0
DWIDTH 4 0
BBX 2 3 1 0
BITMAP
F0
F0
A0
ENDCHAR
STARTCHAR slash
ENCODING 47
SWIDTH 309 0
DWIDTH 6 0
BBX 6 13 0 0
BITMAP
0090
00C0
0180
0240
0300
0700
0A00
0C00
1800
2400
7000
A000
8000
ENDCHAR
STARTCHAR zero
ENCODING 48
SWIDTH 430 0
DWIDTH 8 0
BBX 8 8 0 0
BITMAP
07D0
2974
601C
900D
9009
600C
2428
0BE0
ENDCHAR
STARTCHAR one
ENCODING 49
SWIDTH 318 0
DWIDTH 6 0
BBX 6 11 0 0
BITMAP
0050
0090
00D0
02C0
0BC0
1A80
7280
4280
0240
0240
0200
ENDCHAR
STARTCHAR two
ENCODING 50
SWIDTH 497 0
DWIDTH 9 0
BBX 9 10 0 0
BITMAP
006400
018D00
004600
000600
000600
000A00
000D00
641400
BFF400
1AAB40
ENDCHAR
STARTCHAR three
ENCODING 51
SWIDTH 430 0
DWIDTH 8 0
BBX 8 10 0 0
BITMAP
1540
65A0
0030
0190
2F80
01B0
0018
A009
281C
07F4
ENDCHAR
STARTCHAR four
ENCODING 52
SWIDTH 412 0
DWIDTH 7 0
BBX 7 11 0 0
BITMAP
2000
3000
6000
900C
901C
9038
75F8
2FA8
0018
001C
0018
ENDCHAR
STARTCHAR five
ENCODING 53
SWIDTH 571 0
DWIDTH 10 0
BBX 10 12 0 0
BITMAP
01AB90
019550
024000
070000
0B9000
05A900
000700
000180
400180
800180
655B40
1BF900
ENDCHAR
STARTCHAR six
ENCODING 54
SWIDTH 440 0
DWIDTH 8 0
BBX 8 11 0 0
BITMAP
0068
0295
0A00
1800
3000
7EA4
A01C
9009
6009
396C
1FE0
ENDCHAR
STARTCHAR seven
ENCODING 55
SWIDTH 412 0
DWIDTH 7 0
BBX 7 10 0 0
BITMAP
6550
1590
0090
0090
05D0
1BEC
01C0
0180
0240
0240
ENDCHAR
STARTCHAR eight
ENCODING 56
SWIDTH 375 0
DWIDTH 7 0
BBX 7 11 0 0
BITMAP
0500
2F80
60C0
9180
7700
0F00
2580
7060
3020
2824
07E0
ENDCHAR
STARTCHAR nine
ENCODING 57
SWIDTH 300 0
DWIDTH 5 0
BBX 6 11 0 0
BITMAP
2E40
60C0
90D0
91C0
76C0
1AC0
0180
0180
0180
0180
0180
ENDCHAR
STARTCHAR colon
ENCODING 58
SWIDTH 84 0
DWIDTH 2 0
BBX 2 5 0 1
BITMAP
90
00
00
00
40
ENDCHAR
STARTCHAR semicolon
ENCODING 59
SWIDTH 128 0
DWIDTH 2 0
BBX 3 10 -1 -3
BITMAP
24
14
00
00
04
08
18
28
34
70
ENDCHAR
STARTCHAR less
ENCODING 60
SWIDTH 487 0
DWIDTH 9 0
BBX 8 8 0 0
BITMAP
0001
000A
0074
0280
1D00
7400
BFA4
015A
ENDCHAR
STARTCHAR equal
ENCODING 61
SWIDTH 524 0
DWIDTH 9 0
BBX 9 5 0 2
BITMAP
6FFF80
050040
000000
155500
6AAA00
ENDCHAR
STARTCHAR greater
ENCODING 62
SWIDTH 403 0
DWIDTH 7 0
BBX 7 8 0 0
BITMAP
7400
1B90
006C
0028
00A0
0780
2D00
6000
ENDCHAR
STARTCHAR question
ENCODING 63
SWIDTH 272 0
DWIDTH 5 0
BBX 5 16 0 0
BITMAP
1400
AA00
0240
0180
0240
0300
0A00
0D00
2800
2E00
0500
0000
0000
0000
0100
0240
ENDCHAR
STARTCHAR at
ENCODING 64
SWIDTH 815 0
DWIDTH 15 0
BBX 15 16 0 0
BITMAP
007F9000
02806900
09000640
240000D0
20014070
501AB820
80600924
80802420
90803430
608034A0
3080AEC0
187B4500
09040000
03400000
00A40190
001FFE40
ENDCHAR
STARTCHAR A
ENCODING 65
SWIDTH 562 0
DWIDTH 10 0
BBX 10 14 0 0
BITMAP
01A000
095D00
180600
200240
200180
2000C0
200080
200090
7EAAD0
3000A0
300060
300060
2400A0
140090
ENDCHAR
STARTCHAR B
ENCODING 66
SWIDTH 741 0
DWIDTH 13 0
BBX 13 13 0 0
BITMAP
01540000
6BEB4000
4280D000
01809000
00C18000
00DF4000
0096E000
00A01D00
00600240
00700180
007001C0
00B40280
001BFE00
ENDCHAR
STARTCHAR C
ENCODING 67
SWIDTH 515 0
DWIDTH 9 0
BBX 9 12 0 0
BITMAP
006800
02EC00
0A0800
180000
200000
500000
900000
900000
900000
600000
295A80
0BE500
ENDCHAR
STARTCHAR D
ENCODING 68
SWIDTH 741 0
DWIDTH 13 0
BBX 13 12 0 0
BITMAP
05400000
7ABE4000
4025E000
00242C00
00180700
00180240
000C0180
000C0180
000C0180
000C0740
00541E00
007FE400
ENDCHAR
STARTCHAR E
ENCODING 69
SWIDTH 524 0
DWIDTH 9 0
BBX 9 11 0 0
BITMAP
7FFE00
600000
600000
600000
A6BD00
A54000
900000
900000
900000
615640
2FFE00
ENDCHAR
STARTCHAR F
ENCODING 70
SWIDTH 514 0
DWIDTH 9 0
BBX 12 11 -1 0
BITMAP
16AA90
67D56E
024001
014000
018000
06EA80
06E940
00C000
00D000
009000
005000
ENDCHAR
STARTCHAR G
ENCODING 71
SWIDTH 571 0
DWIDTH 10 0
BBX 10 11 0 -1
BITMAP
000140
006A90
028000
0D0000
240000
606AD0
500050
600090
2916D0
0AA590
000070
ENDCHAR
STARTCHAR H
ENCODING 72
SWIDTH 524 0
DWIDTH 9 0
BBX 9 12 0 0
BITMAP
500240
500240
600240
600240
200240
302F40
36D240
7D0240
340180
240180
240180
140080
ENDCHAR
STARTCHAR I
ENCODING 73
SWIDTH 167 0
DWIDTH 3 0
BBX 3 10 0 0
BITMAP
80
90
60
30
30
24
24
28
18
18
ENDCHAR
STARTCHAR J
ENCODING 74
SWIDTH 439 0
DWIDTH 8 0
BBX 8 13 0 0
BITMAP
0004
0018
000C
000C
000D
0009
0009
9006
6006
2406
0909
0249
00B8
ENDCHAR
STARTCHAR K
ENCODING 75
SWIDTH 468 0
DWIDTH 8 0
BBX 8 11 0 0
BITMAP
4010
90A0
9280
5A00
6800
7400
3800
2A00
31D0
3068
200A
ENDCHAR
STARTCHAR L
ENCODING 76
SWIDTH 346 0
DWIDTH 6 0
BBX 6 10 0 0
BITMAP
1000
3000
6000
6000
A000
9000
9000
9000
6500
1FE0
ENDCHAR
STARTCHAR M
ENCODING 77
SWIDTH 534 0
DWIDTH 10 0
BBX 9 11 0 0
BITMAP
A00240
740340
3C0B40
3BAF40
319240
300240
300180
300180
3001C0
3001C0
1000C0
ENDCHAR
STARTCHAR N
ENCODING 78
SWIDTH 609 0
DWIDTH 11 0
BBX 11 10 0 0
BITMAP
100000
600180
3000D0
3400A0
780030
690024
670024
628024
60B5A0
601A80
ENDCHAR
STARTCHAR O
ENCODING 79
SWIDTH 609 0
DWIDTH 11 0
BBX 11 9 0 0
BITMAP
069000
29AD00
600780
9000A0
900030
600024
340024
1E01A0
06FE40
ENDCHAR
STARTCHAR P
ENCODING 80
SWIDTH 627 0
DWIDTH 11 0
BBX 11 11 0 0
BITMAP
1AA400
A55B90
404074
00901C
00900C
009028
00BAE0
007900
006000
003000
002000
ENDCHAR
STARTCHAR Q
ENCODING 81
SWIDTH 642 0
DWIDTH 12 0
BBX 12 12 0 -2
BITMAP
019000
1A6D00
200B80
6009A0
900024
90000C
601408
340D18
1E5BB0
02FED0
000024
00000A
ENDCHAR
STARTCHAR R
ENCODING 82
SWIDTH 579 0
DWIDTH 10 0
BBX 10 13 0 -1
BITMAP
014000
BABE00
8002C0
440090
0801D0
0A6F40
0B9400
074000
06C000
026400
020900
010280
000060
ENDCHAR
STARTCHAR S
ENCODING 83
SWIDTH 627 0
DWIDTH 11 0
BBX 11 11 0 0
BITMAP
01AA40
0641E0
090000
060000
01D000
002D00
0002D0
900064
600018
190028
02FFE0
ENDCHAR
STARTCHAR T
ENCODING 84
SWIDTH 581 0
DWIDTH 10 0
BBX 12 12 0 0
BITMAP
550000
6BFFE9
001816
001800
001800
001800
000C00
000C00
000D00
000900
000A00
000700
ENDCHAR
STARTCHAR U
ENCODING 85
SWIDTH 571 0
DWIDTH 10 0
BBX 10 10 0 0
BITMAP
200100
600240
500240
500240
500180
6000C0
3000D0
2402E0
1D5D70
07E010
ENDCHAR
STARTCHAR V
ENCODING 86
SWIDTH 421 0
DWIDTH 8 0
BBX 7 10 0 0
BITMAP
4000
A008
700C
341C
1C28
0D24
0A34
0370
02D0
0080
ENDCHAR
STARTCHAR W
ENCODING 87
SWIDTH 703 0
DWIDTH 13 0
BBX 13 9 0 0
BITMAP
80000800
90000D00
90000A00
90100700
90300340
60340240
707C0340
2ADA5A00
0A01F400
ENDCHAR
STARTCHAR X
ENCODING 88
SWIDTH 534 0
DWIDTH 10 0
BBX 10 11 0 -1
BITMAP
100000
180190
090740
061800
02E000
02C000
0AA000
183400
341C00
600600
800000
ENDCHAR
STARTCHAR Y
ENCODING 89
SWIDTH 403 0
DWIDTH 7 0
BBX 7 12 0 0
BITMAP
4000
9008
7008
2828
07B4
01B0
00A0
00C0
00C0
0180
0140
0180
ENDCHAR
STARTCHAR Z
ENCODING 90
SWIDTH 571 0
DWIDTH 10 0
BBX 10 11 0 0
BITMAP
7AE000
401800
000900
000900
001C00
06BFC0
05B400
009000
018000
0346A0
02FE40
ENDCHAR
STARTCHAR bracketleft
ENCODING 91
SWIDTH 477 0
DWIDTH 9 0
BBX 10 15 0 -2
BITMAP
001A00
06E400
790000
600000
700000
340000
240000
180000
180000
080000
080000
080000
090000
0AABE0
055000
ENDCHAR
STARTCHAR backslash
ENCODING 92
SWIDTH 430 0
DWIDTH 8 0
BBX 8 10 0 0
BITMAP
4000
6000
2800
0E00
0740
01D0
00B0
0038
000D
0009
ENDCHAR
STARTCHAR bracketright
ENCODING 93
SWIDTH 430 0
DWIDTH 8 0
BBX 8 17 0 -2
BITMAP
BA90
05B0
0028
0018
0018
0008
0008
0008
0008
0008
0008
0009
0009
0009
0009
2AAD
1AA9
ENDCHAR
STARTCHAR asciicircum
ENCODING 94
SWIDTH 375 0
DWIDTH 7 0
BBX 5 4 1 9
BITMAP
0D00
2F00
A280
4040
ENDCHAR
STARTCHAR underscore
ENCODING 95
SWIDTH 656 0
DWIDTH 12 0
BBX 12 2 0 0
BITMAP
6A5554
05AAFD
ENDCHAR
STARTCHAR grave
ENCODING 96
SWIDTH 172 0
DWIDTH 3 0
BBX 3 2 0 8
BITMAP
60
28
ENDCHAR
STARTCHAR a
ENCODING 97
SWIDTH 505 0
DWIDTH 9 0
BBX 9 9 0 0
BITMAP
07D000
006800
000D00
055700
2A6F40
A00740
900140
755640
0BF900
ENDCHAR
STARTCHAR b
ENCODING 98
SWIDTH 497 0
DWIDTH 9 0
BBX 9 12 0 0
BITMAP
400000
900000
900000
600000
600000
200000
3FE400
341E00
240240
240180
1D0740
07F900
ENDCHAR
STARTCHAR c
ENCODING 99
SWIDTH 449 0
DWIDTH 8 0
BBX 8 8 0 0
BITMAP
0BE0
2424
6000
9000
9000
6000
3900
0BFD
ENDCHAR
STARTCHAR d
ENCODING 100
SWIDTH 524 0
DWIDTH 9 0
BBX 9 13 0 0
BITMAP
000800
000D00
000A00
000700
000740
1F9340
397B40
700B80
A00380
900780
601E80
35B5C0
1F9040
ENDCHAR
STARTCHAR e
ENCODING 101
SWIDTH 515 0
DWIDTH 9 0
BBX 9 10 0 0
BITMAP
014000
0AB000
242400
601800
907400
AB9000
900000
300000
1D4140
02FE00
ENDCHAR
STARTCHAR f
ENCODING 102
SWIDTH 376 0
DWIDTH 7 0
BBX 8 13 0 0
BITMAP
01A4
075D
0907
0800
1800
1800
1800
AEA0
5E50
0600
0340
01C0
0090
ENDCHAR
STARTCHAR g
ENCODING 103
SWIDTH 366 0
DWIDTH 7 0
BBX 10 17 -3 -9
BITMAP
000500
002A40
009180
0180C0
0240D0
0241D0
01EBD0
0064D0
000090
000090
000060
000060
600060
600090
2900D0
07E680
006A00
ENDCHAR
STARTCHAR h
ENCODING 104
SWIDTH 427 0
DWIDTH 8 0
BBX 7 13 0 0
BITMAP
4000
C000
D000
9000
6000
7FD0
3570
3018
3008
300C
240C
240C
2418
ENDCHAR
STARTCHAR i
ENCODING 105
SWIDTH 174 0
DWIDTH 3 0
BBX 3 11 0 0
BITMAP
80
40
00
20
30
30
24
24
28
18
18
ENDCHAR
STARTCHAR j
ENCODING 106
SWIDTH 200 0
DWIDTH 4 0
BBX 6 19 -2 -8
BITMAP
0500
0600
0000
0000
0240
0180
01C0
00C0
00D0
0090
00A0
0060
0070
8030
9030
6030
2430
0EB0
02D0
ENDCHAR
STARTCHAR k
ENCODING 107
SWIDTH 403 0
DWIDTH 7 0
BBX 7 11 0 0
BITMAP
8000
8000
9000
90A0
6180
7600
3C00
3800
3D00
3794
3068
ENDCHAR
STARTCHAR l
ENCODING 108
SWIDTH 120 0
DWIDTH 2 0
BBX 2 10 0 0
BITMAP
50
A0
A0
A0
A0
A0
A0
60
60
50
ENDCHAR
STARTCHAR m
ENCODING 109
SWIDTH 750 0
DWIDTH 14 0
BBX 13 8 0 0
BITMAP
00006400
6FD2EA00
747A0240
602C0180
601C00C0
600D00C0
600900C0
20000180
ENDCHAR
STARTCHAR n
ENCODING 110
SWIDTH 459 0
DWIDTH 8 0
BBX 8 8 0 0
BITMAP
06E0
7928
700C
600A
6006
7007
3407
1406
ENDCHAR
STARTCHAR o
ENCODING 111
SWIDTH 487 0
DWIDTH 9 0
BBX 9 7 0 0
BITMAP
06F800
291E00
600300
900240
900700
342D00
0BE400
ENDCHAR
STARTCHAR p
ENCODING 112
SWIDTH 520 0
DWIDTH 9 0
BBX 9 14 0 -7
BITMAP
005000
1BFD00
340240
7000C0
B501C0
B7AB80
745500
740000
340000
280000
280000
1C0000
0C0000
040000
ENDCHAR
STARTCHAR q
ENCODING 113
SWIDTH 412 0
DWIDTH 7 0
BBX 7 15 0 -6
BITMAP
06E0
2828
3018
9028
9028
9024
6034
2AB4
06B4
0024
0024
0024
0028
0018
0004
ENDCHAR
STARTCHAR r
ENCODING 114
SWIDTH 346 0
DWIDTH 6 0
BBX 6 8 0 0
BITMAP
5BE0
A010
9000
6000
6000
3000
2400
1400
ENDCHAR
STARTCHAR s
ENCODING 115
SWIDTH 514 0
DWIDTH 9 0
BBX 9 8 0 0
BITMAP
2EE000
602400
201000
1AA400
005B40
000280
740280
1BFE00
ENDCHAR
STARTCHAR t
ENCODING 116
SWIDTH 328 0
DWIDTH 6 0
BBX 6 11 0 0
BITMAP
0900
0900
0900
0900
BFE0
0A00
0A00
0A00
0A00
0600
0200
ENDCHAR
STARTCHAR u
ENCODING 117
SWIDTH 501 0
DWIDTH 9 0
BBX 9 9 0 0
BITMAP
500000
900900
900A00
900A00
600A00
301F00
187740
0BD280
000040
ENDCHAR
STARTCHAR v
ENCODING 118
SWIDTH 389 0
DWIDTH 7 0
BBX 7 7 0 0
BITMAP
8000
6028
3030
2860
0CD0
07C0
0240
ENDCHAR
STARTCHAR w
ENCODING 119
SWIDTH 656 0
DWIDTH 12 0
BBX 12 8 0 0
BITMAP
100000
500010
901418
90180C
902809
602C0D
25BA6C
0B82A4
ENDCHAR
STARTCHAR x
ENCODING 120
SWIDTH 448 0
DWIDTH 8 0
BBX 8 8 0 -1
BITMAP
9006
7428
1D90
0740
0AD0
2474
201C
0009
ENDCHAR
STARTCHAR y
ENCODING 121
SWIDTH 487 0
DWIDTH 9 0
BBX 9 17 0 -9
BITMAP
400100
800200
900300
600300
300340
240740
0E6A40
019140
000140
000140
000140
000240
000240
200300
280600
0B5D00
01A400
ENDCHAR
STARTCHAR z
ENCODING 122
SWIDTH 459 0
DWIDTH 8 0
BBX 8 10 0 0
BITMAP
0540
7AA0
5030
0030
0060
6FE8
0740
0D00
1D5A
0BE8
ENDCHAR
STARTCHAR braceleft
ENCODING 123
SWIDTH 393 0
DWIDTH 7 0
BBX 7 18 0 -2
BITMAP
06F4
1D04
7000
9000
9000
6000
2900
07D0
07E0
2830
0070
01D0
0A00
1800
2000
2400
1D54
06A4
ENDCHAR
STARTCHAR bar
ENCODING 124
SWIDTH 149 0
DWIDTH 3 0
BBX 3 12 0 0
BITMAP
40
80
50
60
20
30
30
30
24
24
24
24
ENDCHAR
STARTCHAR braceright
ENCODING 125
SWIDTH 440 0
DWIDTH 8 0
BBX 8 21 0 -4
BITMAP
BF90
A074
0028
0024
00A0
0280
0A00
0C00
0BF4
0940
0900
0340
0090
0030
0014
000C
0009
0005
4009
9028
2EE0
ENDCHAR
STARTCHAR asciitilde
ENCODING 126
SWIDTH 402 0
DWIDTH 7 0
BBX 7 3 0 7
BITMAP
2814
96A0
4000
ENDCHAR
STARTCHAR nonbreakingspace
ENCODING 160
SWIDTH 375 0
DWIDTH 7 0
BBX 1 1 0 0
BITMAP
00
ENDCHAR
STARTCHAR exclamdown
ENCODING 161
SWIDTH 149 0
DWIDTH 3 0
BBX 3 12 0 0
BITMAP
74
10
00
00
20
60
60
60
60
60
60
60
ENDCHAR
STARTCHAR cent
ENCODING 162
SWIDTH 449 0
DWIDTH 8 0
BBX 8 11 0 -1
BITMAP
0100
0140
07E0
29A4
60C0
90C0
90C0
60C0
39C0
1BF9
0080
ENDCHAR
STARTCHAR sterling
ENCODING 163
SWIDTH 758 0
DWIDTH 14 0
BBX 13 13 0 0
BITMAP
00007E40
000191C0
00020080
00060000
00090000
01AFF800
065D0000
00180000
00140000
00200000
15A40000
BFFFD000
7E400000
ENDCHAR
STARTCHAR currency
ENCODING 164
SWIDTH 618 0
DWIDTH 11 0
BBX 10 10 0 0
BITMAP
500000
34BE60
0F96D0
0D0050
080020
080060
0900D0
0B9B40
185580
100040
ENDCHAR
STARTCHAR yen
ENCODING 165
SWIDTH 389 0
DWIDTH 7 0
BBX 7 14 0 0
BITMAP
1000
3008
2418
1834
08A0
06D0
0380
0240
6BE0
0340
7FE0
0340
0300
0700
ENDCHAR
STARTCHAR brokenbar
ENCODING 166
SWIDTH 117 0
DWIDTH 2 0
BBX 2 10 0 0
BITMAP
50
60
50
50
50
90
A0
A0
60
60
ENDCHAR
STARTCHAR section
ENCODING 167
SWIDTH 514 0
DWIDTH 9 0
BBX 9 12 0 0
BITMAP
0BA400
395E00
300200
1D5000
2FAA40
7001C0
7001C0
1EAB40
015B40
100280
280280
06FE00
ENDCHAR
STARTCHAR dieresis
ENCODING 168
SWIDTH 397 0
DWIDTH 7 0
BBX 5 2 1 8
BITMAP
1140
B380
ENDCHAR
STARTCHAR copyright
ENCODING 169
SWIDTH 667 0
DWIDTH 12 0
BBX 12 10 0 0
BITMAP
02FE40
0906D0
246E74
31820C
620105
530006
624006
29EA89
1E56B8
02FE90
ENDCHAR
STARTCHAR ordfeminine
ENCODING 170
SWIDTH 266 0
DWIDTH 5 0
BBX 5 5 0 4
BITMAP
1800
0200
6700
4140
6A00
ENDCHAR
STARTCHAR guillemotleft
ENCODING 171
SWIDTH 755 0
DWIDTH 14 0
BBX 13 9 0 0
BITMAP
00000140
00010A00
000A7400
00768000
029D0000
1D780000
746FE900
BFA41A00
015A0000
ENDCHAR
STARTCHAR logicalnot
ENCODING 172
SWIDTH 369 0
DWIDTH 7 0
BBX 7 4 0 4
BITMAP
1550
6AB4
0020
0010
ENDCHAR
STARTCHAR hyphen_
ENCODING 173
SWIDTH 375 0
DWIDTH 7 0
BBX 6 2 0 4
BITMAP
2AA0
6550
ENDCHAR
STARTCHAR registered
ENCODING 174
SWIDTH 708 0
DWIDTH 13 0
BBX 12 11 0 0
BITMAP
005400
06AF40
1801A0
27AA68
2181C9
60A686
60B402
30A806
285659
0B56F4
01A940
ENDCHAR
STARTCHAR macron
ENCODING 175
SWIDTH 287 0
DWIDTH 5 0
BBX 5 2 0 8
BITMAP
2A80
6540
ENDCHAR
STARTCHAR degree
ENCODING 176
SWIDTH 254 0
DWIDTH 5 0
BBX 4 5 0 5
BITMAP
18
56
41
82
69
ENDCHAR
STARTCHAR plusminus
ENCODING 177
SWIDTH 459 0
DWIDTH 8 0
BBX 8 9 0 0
BITMAP
0100
0300
0240
06E9
BAE9
01C0
00C0
1AFE
1500
ENDCHAR
STARTCHAR twosuperior
ENCODING 178
SWIDTH 296 0
DWIDTH 5 0
BBX 5 6 0 4
BITMAP
0900
0500
0140
0200
5500
6A40
ENDCHAR
STARTCHAR threesuperior
ENCODING 179
SWIDTH 204 0
DWIDTH 4 0
BBX 4 6 0 5
BITMAP
A4
08
74
09
82
69
ENDCHAR
STARTCHAR acute
ENCODING 180
SWIDTH 180 0
DWIDTH 3 0
BBX 3 3 0 7
BITMAP
08
74
80
ENDCHAR
STARTCHAR mu
ENCODING 181
SWIDTH 501 0
DWIDTH 9 0
BBX 9 10 0 -1
BITMAP
400000
900400
900A00
900A00
A00A00
B00E00
B82B00
9EE240
914180
900000
ENDCHAR
STARTCHAR paragraph
ENCODING 182
SWIDTH 413 0
DWIDTH 7 0
BBX 7 11 0 -1
BITMAP
0040
2FF4
7FF8
BFD8
BFD8
15D8
00D8
00D8
00D8
00D8
0044
ENDCHAR
STARTCHAR periodcentered
ENCODING 183
SWIDTH 212 0
DWIDTH 4 0
BBX 2 2 1 3
BITMAP
F0
A0
ENDCHAR
STARTCHAR cedilla
ENCODING 184
SWIDTH 445 0
DWIDTH 8 0
BBX 5 7 3 -6
BITMAP
4000
8000
9000
1A00
4240
A640
1400
ENDCHAR
STARTCHAR onesuperior
ENCODING 185
SWIDTH 197 0
DWIDTH 4 0
BBX 4 7 0 4
BITMAP
05
08
2C
9C
48
18
14
ENDCHAR
STARTCHAR ordmasculine
ENCODING 186
SWIDTH 254 0
DWIDTH 5 0
BBX 4 5 0 5
BITMAP
18
56
41
82
69
ENDCHAR
STARTCHAR guillemotright
ENCODING 187
SWIDTH 659 0
DWIDTH 12 0
BBX 11 9 0 0
BITMAP
006000
742900
1B96E8
006C1C
002874
00A1D0
078A00
2D7800
605000
ENDCHAR
STARTCHAR onequarter
ENCODING 188
SWIDTH 626 0
DWIDTH 11 0
BBX 11 14 0 0
BITMAP
001000
002000
022000
062000
0D6000
295000
498000
088400
099800
026014
021430
020AB0
050120
040020
ENDCHAR
STARTCHAR onehalf
ENCODING 189
SWIDTH 566 0
DWIDTH 10 0
BBX 10 14 0 -1
BITMAP
010400
021400
062000
0E2000
292000
995000
099680
08C480
098080
014080
020080
02BA40
056A90
080000
ENDCHAR
STARTCHAR threequarters
ENCODING 190
SWIDTH 566 0
DWIDTH 10 0
BBX 10 14 0 -1
BITMAP
000400
001400
582000
082000
382000
055000
829800
299400
009420
0194A0
024B90
030020
060020
050000
ENDCHAR
STARTCHAR questiondown
ENCODING 191
SWIDTH 272 0
DWIDTH 5 0
BBX 5 14 0 -1
BITMAP
6000
0000
0000
0000
1000
6E00
0A00
1D00
2800
7000
A000
6000
2A80
0500
ENDCHAR
STARTCHAR Agrave
ENCODING 192
SWIDTH 562 0
DWIDTH 10 0
BBX 10 17 0 0
BITMAP
009000
007000
000000
01A000
095D00
180600
200240
200180
2000C0
200080
200090
7EAAD0
3000A0
300060
300060
2400A0
140090
ENDCHAR
STARTCHAR Aacute
ENCODING 193
SWIDTH 562 0
DWIDTH 10 0
BBX 10 17 0 0
BITMAP
008000
024000
050000
01A000
095D00
180600
200240
200180
2000C0
200080
200090
7EAAD0
3000A0
300060
300060
2400A0
140090
ENDCHAR
STARTCHAR Acircumflex
ENCODING 194
SWIDTH 562 0
DWIDTH 10 0
BBX 10 17 0 0
BITMAP
00D000
02F000
0B2800
05A800
095D00
180600
200240
200180
2000C0
200080
200090
7EAAD0
3000A0
300060
300060
2400A0
140090
ENDCHAR
STARTCHAR Atilde
ENCODING 195
SWIDTH 562 0
DWIDTH 10 0
BBX 10 17 0 0
BITMAP
0A0500
14A800
100000
01A000
095D00
180600
200240
200180
2000C0
200080
200090
7EAAD0
3000A0
300060
300060
2400A0
140090
ENDCHAR
STARTCHAR Adieresis
ENCODING 196
SWIDTH 562 0
DWIDTH 10 0
BBX 10 17 0 0
BITMAP
010400
076C00
010000
01A000
095D00
180600
200240
200180
2000C0
200080
200090
7EAAD0
3000A0
300060
300060
2400A0
140090
ENDCHAR
STARTCHAR Aring
ENCODING 197
SWIDTH 562 0
DWIDTH 10 0
BBX 10 17 0 0
BITMAP
005000
026000
022000
02E400
095D00
180600
200240
200180
2000C0
200080
200090
7EAAD0
3000A0
300060
300060
2400A0
140090
ENDCHAR
STARTCHAR AE
ENCODING 198
SWIDTH 960 0
DWIDTH 17 0
BBX 17 14 0 0
BITMAP
01A0000000
095D000000
1806000000
20027FFA40
2001B00000
2000F00000
2000B00000
2000BABE00
7EAAF50000
3000A00000
3000600000
3000600000
2400A55640
1400AFFA40
ENDCHAR
STARTCHAR Ccedilla
ENCODING 199
SWIDTH 515 0
DWIDTH 9 0
BBX 9 18 0 -6
BITMAP
006800
02EC00
0A0800
180000
200000
500000
900000
900000
900000
600000
295A80
0BE500
050000
024000
01A400
040C00
075800
005000
ENDCHAR
STARTCHAR Egrave
ENCODING 200
SWIDTH 524 0
DWIDTH 9 0
BBX 9 14 0 0
BITMAP
018000
00A000
000000
7FFE00
600000
600000
600000
A6BD00
A54000
900000
900000
900000
615640
2FFE00
ENDCHAR
STARTCHAR Eacute
ENCODING 201
SWIDTH 524 0
DWIDTH 9 0
BBX 9 14 0 0
BITMAP
005000
018000
020000
7FFE00
600000
600000
600000
A6BD00
A54000
900000
900000
900000
615640
2FFE00
ENDCHAR
STARTCHAR Ecircumflex
ENCODING 202
SWIDTH 524 0
DWIDTH 9 0
BBX 9 16 0 0
BITMAP
00A000
01F400
075C00
050400
000000
7FFE00
600000
600000
600000
A6BD00
A54000
900000
900000
900000
615640
2FFE00
ENDCHAR
STARTCHAR Edieresis
ENCODING 203
SWIDTH 524 0
DWIDTH 9 0
BBX 9 14 0 0
BITMAP
011400
0B2C00
010000
7FFE00
600000
600000
600000
A6BD00
A54000
900000
900000
900000
615640
2FFE00
ENDCHAR
STARTCHAR Igrave
ENCODING 204
SWIDTH 167 0
DWIDTH 3 0
BBX 4 14 -1 0
BITMAP
60
1C
00
00
20
24
18
0C
0C
09
09
0A
06
06
ENDCHAR
STARTCHAR Iacute
ENCODING 205
SWIDTH 167 0
DWIDTH 3 0
BBX 4 13 -1 0
BITMAP
09
28
50
20
24
18
0C
0C
09
09
0A
06
06
ENDCHAR
STARTCHAR Icircumflex
ENCODING 206
SWIDTH 167 0
DWIDTH 3 0
BBX 5 16 -1 0
BITMAP
0D00
1F40
72C0
4040
0000
0000
2000
2400
1800
0C00
0C00
0900
0900
0A00
0600
0600
ENDCHAR
STARTCHAR Idieresis
ENCODING 207
SWIDTH 167 0
DWIDTH 3 0
BBX 5 13 -2 0
BITMAP
5100
B380
0000
0800
0900
0600
0300
0300
0240
0240
0280
0180
0180
ENDCHAR
STARTCHAR Eth
ENCODING 208
SWIDTH 741 0
DWIDTH 13 0
BBX 13 12 0 0
BITMAP
05400000
7ABE4000
4035E000
00242C00
00180700
002A9240
00AD5180
000C0180
000C0180
000C0740
00541E00
007FE400
ENDCHAR
STARTCHAR Ntilde
ENCODING 209
SWIDTH 609 0
DWIDTH 11 0
BBX 11 13 0 0
BITMAP
028140
052A00
040000
100000
600180
3000D0
3400A0
780030
690024
670024
628024
60B5A0
601A80
ENDCHAR
STARTCHAR Ograve
ENCODING 210
SWIDTH 609 0
DWIDTH 11 0
BBX 11 13 0 0
BITMAP
006000
001800
000000
000000
069000
29AD00
600780
9000A0
900030
600024
340024
1E01A0
06FE40
ENDCHAR
STARTCHAR Oacute
ENCODING 211
SWIDTH 609 0
DWIDTH 11 0
BBX 11 13 0 0
BITMAP
001400
00A000
018000
000000
069000
29AD00
600780
9000A0
900030
600024
340024
1E01A0
06FE40
ENDCHAR
STARTCHAR Ocircumflex
ENCODING 212
SWIDTH 609 0
DWIDTH 11 0
BBX 11 14 0 0
BITMAP
028000
03E000
0D7400
141000
000000
069000
29AD00
600780
9000A0
900030
600024
340024
1E01A0
06FE40
ENDCHAR
STARTCHAR Otilde
ENCODING 213
SWIDTH 609 0
DWIDTH 11 0
BBX 11 12 0 0
BITMAP
0A0500
14A800
140000
069000
29AD00
600780
9000A0
900030
600024
340024
1E01A0
06FE40
ENDCHAR
STARTCHAR Odieresis
ENCODING 214
SWIDTH 609 0
DWIDTH 11 0
BBX 11 13 0 0
BITMAP
014400
02CE00
000000
000000
069000
29AD00
600780
9000A0
900030
600024
340024
1E01A0
06FE40
ENDCHAR
STARTCHAR multiply
ENCODING 215
SWIDTH 448 0
DWIDTH 8 0
BBX 5 5 1 1
BITMAP
8080
7640
1D00
2B40
5140
ENDCHAR
STARTCHAR Oslash
ENCODING 216
SWIDTH 609 0
DWIDTH 11 0
BBX 11 14 0 -2
BITMAP
000400
000900
000C00
069800
29BD00
603780
9060A0
909030
60C024
358024
1F41A0
07FE40
0A0000
080000
ENDCHAR
STARTCHAR Ugrave
ENCODING 217
SWIDTH 571 0
DWIDTH 10 0
BBX 10 13 0 0
BITMAP
009000
002400
000000
200100
600240
500240
500240
500180
6000C0
3000D0
2402E0
1D5D70
07E010
ENDCHAR
STARTCHAR Uacute
ENCODING 218
SWIDTH 571 0
DWIDTH 10 0
BBX 10 13 0 0
BITMAP
002000
00D000
014000
200100
600240
500240
500240
500180
6000C0
3000D0
2402E0
1D5D70
07E010
ENDCHAR
STARTCHAR Ucircumflex
ENCODING 219
SWIDTH 571 0
DWIDTH 10 0
BBX 10 16 0 0
BITMAP
007000
00B800
029D00
010100
000000
000000
200100
600240
500240
500240
500180
6000C0
3000D0
2402E0
1D5D70
07E010
ENDCHAR
STARTCHAR Udieresis
ENCODING 220
SWIDTH 571 0
DWIDTH 10 0
BBX 10 13 0 0
BITMAP
010400
039D00
010400
200100
600240
500240
500240
500180
6000C0
3000D0
2402E0
1D5D70
07E010
ENDCHAR
STARTCHAR Yacute
ENCODING 221
SWIDTH 403 0
DWIDTH 7 0
BBX 7 15 0 0
BITMAP
0020
01D0
0240
4000
9008
7008
2828
07B4
01B0
00A0
00C0
00C0
0180
0140
0180
ENDCHAR
STARTCHAR Thorn
ENCODING 222
SWIDTH 497 0
DWIDTH 9 0
BBX 8 14 1 -3
BITMAP
C000
C000
C000
C000
C000
FF90
D078
D009
D006
B41D
9BE4
9000
9000
5000
ENDCHAR
STARTCHAR germandbls
ENCODING 223
SWIDTH 590 0
DWIDTH 11 0
BBX 11 16 0 -3
BITMAP
150000
7EE000
602800
601800
706400
32E000
30BD00
200680
240090
240030
140034
1456E0
14A500
280000
280000
040000
ENDCHAR
STARTCHAR agrave
ENCODING 224
SWIDTH 505 0
DWIDTH 9 0
BBX 9 12 0 0
BITMAP
024000
009000
000000
07D000
006800
000D00
055700
2A6F40
A00740
900140
755640
0BF900
ENDCHAR
STARTCHAR aacute
ENCODING 225
SWIDTH 505 0
DWIDTH 9 0
BBX 9 13 0 0
BITMAP
005000
028000
020000
000000
07D000
006800
000D00
055700
2A6F40
A00740
900140
755640
0BF900
ENDCHAR
STARTCHAR acircumflex
ENCODING 226
SWIDTH 505 0
DWIDTH 9 0
BBX 9 13 0 0
BITMAP
00D000
01F400
072C00
040400
07D000
006800
000D00
055700
2A6F40
A00740
900140
755640
0BF900
ENDCHAR
STARTCHAR atilde
ENCODING 227
SWIDTH 505 0
DWIDTH 9 0
BBX 9 13 0 0
BITMAP
0A0500
25A800
100000
000000
07D000
006800
000D00
055700
2A6F40
A00740
900140
755640
0BF900
ENDCHAR
STARTCHAR adieresis
ENCODING 228
SWIDTH 505 0
DWIDTH 9 0
BBX 9 12 0 0
BITMAP
011400
0B2C00
000000
07D000
006800
000D00
055700
2A6F40
A00740
900140
755640
0BF900
ENDCHAR
STARTCHAR aring
ENCODING 229
SWIDTH 505 0
DWIDTH 9 0
BBX 9 12 0 0
BITMAP
019000
022000
026000
07D000
006800
000D00
055700
2A6F40
A00740
900140
755640
0BF900
ENDCHAR
STARTCHAR ae
ENCODING 230
SWIDTH 881 0
DWIDTH 16 0
BBX 16 10 0 -1
BITMAP
07D01A40
0068A0D0
000E8050
05574090
2A6F5B80
A007A400
90018000
7556E000
0BF92EA9
00000150
ENDCHAR
STARTCHAR ccedilla
ENCODING 231
SWIDTH 449 0
DWIDTH 8 0
BBX 8 14 0 -6
BITMAP
06E0
2824
6000
9000
9000
6000
3900
0BFD
0500
0240
0068
040C
03A8
0050
ENDCHAR
STARTCHAR egrave
ENCODING 232
SWIDTH 515 0
DWIDTH 9 0
BBX 9 12 0 0
BITMAP
060000
01C000
014000
0AB000
242400
601800
907400
AB9000
900000
300000
1D4140
02FE00
ENDCHAR
STARTCHAR eacute
ENCODING 233
SWIDTH 515 0
DWIDTH 9 0
BBX 9 13 0 0
BITMAP
005000
028000
050000
014000
0AB000
242400
601800
907400
AB9000
900000
300000
1D4140
02FE00
ENDCHAR
STARTCHAR ecircumflex
ENCODING 234
SWIDTH 515 0
DWIDTH 9 0
BBX 9 13 0 0
BITMAP
009000
01F400
076C00
054400
0AB000
242400
601800
907400
AB9000
900000
300000
1D4140
02FE00
ENDCHAR
STARTCHAR edieresis
ENCODING 235
SWIDTH 515 0
DWIDTH 9 0
BBX 9 12 0 0
BITMAP
041000
0E3400
015000
0AB000
242400
601800
907400
AB9000
900000
300000
1D4140
02FE00
ENDCHAR
STARTCHAR igrave
ENCODING 236
SWIDTH 174 0
DWIDTH 3 0
BBX 3 11 0 0
BITMAP
50
34
04
20
30
30
24
24
28
18
18
ENDCHAR
STARTCHAR iacute
ENCODING 237
SWIDTH 174 0
DWIDTH 3 0
BBX 3 11 0 0
BITMAP
24
D0
40
20
30
30
24
24
28
18
18
ENDCHAR
STARTCHAR icircumflex
ENCODING 238
SWIDTH 174 0
DWIDTH 3 0
BBX 5 13 -1 0
BITMAP
0D00
1F40
76C0
4040
0000
0800
0C00
0C00
0900
0900
0A00
0600
0600
ENDCHAR
STARTCHAR idieresis
ENCODING 239
SWIDTH 174 0
DWIDTH 3 0
BBX 5 11 -1 0
BITMAP
5140
B380
0000
0800
0C00
0C00
0900
0900
0A00
0600
0600
ENDCHAR
STARTCHAR eth
ENCODING 240
SWIDTH 407 0
DWIDTH 7 0
BBX 7 11 0 -1
BITMAP
1400
6B44
02FC
0BB0
0568
2ABC
600C
9008
6018
1FF0
0040
ENDCHAR
STARTCHAR ntilde
ENCODING 241
SWIDTH 459 0
DWIDTH 8 0
BBX 8 12 0 0
BITMAP
2904
62A0
5000
0000
06E0
7928
700C
600A
6006
7007
3407
1406
ENDCHAR
STARTCHAR ograve
ENCODING 242
SWIDTH 487 0
DWIDTH 9 0
BBX 9 10 0 0
BITMAP
018000
00A000
000000
06F800
291E00
600300
900240
900700
342D00
0BE400
ENDCHAR
STARTCHAR oacute
ENCODING 243
SWIDTH 487 0
DWIDTH 9 0
BBX 9 11 0 0
BITMAP
005000
028000
020000
000000
06F800
291E00
600300
900240
900700
342D00
0BE400
ENDCHAR
STARTCHAR ocircumflex
ENCODING 244
SWIDTH 487 0
DWIDTH 9 0
BBX 9 12 0 0
BITMAP
01C000
02F000
0A3800
040400
000000
06F800
291E00
600300
900240
900700
342D00
0BE400
ENDCHAR
STARTCHAR otilde
ENCODING 245
SWIDTH 487 0
DWIDTH 9 0
BBX 9 10 0 0
BITMAP
0A0500
25A800
100000
06F800
291E00
600300
900240
900700
342D00
0BE400
ENDCHAR
STARTCHAR odieresis
ENCODING 246
SWIDTH 487 0
DWIDTH 9 0
BBX 9 10 0 0
BITMAP
051000
0A3800
001000
06F800
291E00
600300
900240
900700
342D00
0BE400
ENDCHAR
STARTCHAR divide
ENCODING 247
SWIDTH 335 0
DWIDTH 6 0
BBX 4 5 1 1
BITMAP
14
00
AA
51
14
ENDCHAR
STARTCHAR oslash
ENCODING 248
SWIDTH 487 0
DWIDTH 9 0
BBX 9 9 0 0
BITMAP
000400
016800
1EBC00
346A00
90D300
928340
A60700
3D2D00
2BE400
ENDCHAR
STARTCHAR ugrave
ENCODING 249
SWIDTH 501 0
DWIDTH 9 0
BBX 9 12 0 0
BITMAP
060000
028000
000000
500000
900900
900A00
900A00
600A00
301F00
187740
0BD280
000040
ENDCHAR
STARTCHAR uacute
ENCODING 250
SWIDTH 501 0
DWIDTH 9 0
BBX 9 12 0 0
BITMAP
005000
028000
020000
500000
900900
900A00
900A00
600A00
301F00
187740
0BD280
000040
ENDCHAR
STARTCHAR ucircumflex
ENCODING 251
SWIDTH 501 0
DWIDTH 9 0
BBX 9 13 0 0
BITMAP
00D000
01F400
072C00
040400
500000
900900
900A00
900A00
600A00
301F00
187740
0BD280
000040
ENDCHAR
STARTCHAR udieresis
ENCODING 252
SWIDTH 501 0
DWIDTH 9 0
BBX 9 12 0 0
BITMAP
041000
0D7400
041000
500000
900900
900A00
900A00
600A00
301F00
187740
0BD280
000040
ENDCHAR
STARTCHAR yacute
ENCODING 253
SWIDTH 487 0
DWIDTH 9 0
BBX 9 21 0 -9
BITMAP
005000
028000
060000
000000
400100
800200
900300
600300
300340
240740
0E6A40
019140
000140
000140
000140
000240
000240
200300
280600
0B5D00
01A400
ENDCHAR
STARTCHAR thorn
ENCODING 254
SWIDTH 520 0
DWIDTH 9 0
BBX 9 13 0 -4
BITMAP
200000
600000
61A400
7E5B40
700180
6000C0
7502C0
7BFE40
600000
A00000
600000
600000
100000
ENDCHAR
STARTCHAR ydieresis
ENCODING 255
SWIDTH 487 0
DWIDTH 9 0
BBX 9 20 0 -9
BITMAP
041000
0E7400
041000
400100
800200
900300
600300
300340
240740
0E6A40
019140
000140
000140
000140
000240
000240
200300
280600
0B5D00
01A400
ENDCHAR
STARTCHAR Amacron
ENCODING 256
SWIDTH 562 0
DWIDTH 10 0
BBX 10 16 0 0
BITMAP
06A400
0A5400
01A000
095D00
180600
200240
200180
2000C0
200080
200090
7EAAD0
3000A0
300060
300060
2400A0
140090
ENDCHAR
STARTCHAR amacron
ENCODING 257
SWIDTH 505 0
DWIDTH 9 0
BBX 9 12 0 0
BITMAP
06A400
095400
000000
07D000
006800
000D00
055700
2A6F40
A00740
900140
755640
0BF900
ENDCHAR
STARTCHAR Abreve
ENCODING 258
SWIDTH 562 0
DWIDTH 10 0
BBX 10 17 0 0
BITMAP
014800
00A000
000000
01A000
095D00
180600
200240
200180
2000C0
200080
200090
7EAAD0
3000A0
300060
300060
2400A0
140090
ENDCHAR
STARTCHAR abreve
ENCODING 259
SWIDTH 505 0
DWIDTH 9 0
BBX 9 12 0 0
BITMAP
052000
029000
000000
07D000
006800
000D00
055700
2A6F40
A00740
900140
755640
0BF900
ENDCHAR
STARTCHAR Aogonek
ENCODING 260
SWIDTH 562 0
DWIDTH 10 0
BBX 10 17 0 -3
BITMAP
01A000
095D00
180600
200240
200180
2000C0
200080
200090
7EAAD0
3000A0
300060
300060
2400A0
1401D0
000600
000600
0001A0
ENDCHAR
STARTCHAR aogonek
ENCODING 261
SWIDTH 505 0
DWIDTH 9 0
BBX 9 11 0 -2
BITMAP
07D000
006800
000D00
055700
2A6F40
A00740
900140
755640
0BF900
003000
002A40
ENDCHAR
STARTCHAR Cacute
ENCODING 262
SWIDTH 515 0
DWIDTH 9 0
BBX 9 15 0 0
BITMAP
001400
00A000
008000
006800
02EC00
0A0800
180000
200000
500000
900000
900000
900000
600000
295A80
0BE500
ENDCHAR
STARTCHAR cacute
ENCODING 263
SWIDTH 449 0
DWIDTH 8 0
BBX 8 12 0 0
BITMAP
0060
01C0
0200
0000
0BE0
2424
6000
9000
9000
6000
3900
0BFD
ENDCHAR
STARTCHAR Ccircumflex
ENCODING 264
SWIDTH 515 0
DWIDTH 9 0
BBX 9 16 0 0
BITMAP
009000
01F400
076C00
040400
006800
02EC00
0A0800
180000
200000
500000
900000
900000
900000
600000
295A80
0BE500
ENDCHAR
STARTCHAR ccircumflex
ENCODING 265
SWIDTH 449 0
DWIDTH 8 0
BBX 8 13 0 0
BITMAP
01C0
03E0
0A74
0414
0000
0BE0
2424
6000
9000
9000
6000
3900
0BFD
ENDCHAR
STARTCHAR Cdotaccent
ENCODING 266
SWIDTH 515 0
DWIDTH 9 0
BBX 9 14 0 0
BITMAP
009000
005000
006800
02EC00
0A0800
180000
200000
500000
900000
900000
900000
600000
295A80
0BE500
ENDCHAR
STARTCHAR cdotaccent
ENCODING 267
SWIDTH 449 0
DWIDTH 8 0
BBX 8 10 0 0
BITMAP
0240
0140
0BE0
2424
6000
9000
9000
6000
3900
0BFD
ENDCHAR
STARTCHAR Ccaron
ENCODING 268
SWIDTH 515 0
DWIDTH 9 0
BBX 9 15 0 0
BITMAP
018A00
007800
000000
006800
02EC00
0A0800
180000
200000
500000
900000
900000
900000
600000
295A80
0BE500
ENDCHAR
STARTCHAR ccaron
ENCODING 269
SWIDTH 449 0
DWIDTH 8 0
BBX 8 11 0 0
BITMAP
0964
02D0
0000
0BE0
2424
6000
9000
9000
6000
3900
0BFD
ENDCHAR
STARTCHAR Dcaron
ENCODING 270
SWIDTH 741 0
DWIDTH 13 0
BBX 13 14 0 0
BITMAP
00618000
000E0000
05400000
7ABE4000
4025E000
00242C00
00180700
00180240
000C0180
000C0180
000C0180
000C0740
00541E00
007FE400
ENDCHAR
STARTCHAR dcaron
ENCODING 271
SWIDTH 582 0
DWIDTH 10 0
BBX 10 13 0 0
BITMAP
000820
000D30
000A30
000720
000740
1F9340
397B40
700B80
A00380
900780
601E80
35B5C0
1F9040
ENDCHAR
STARTCHAR Dcroat
ENCODING 272
SWIDTH 741 0
DWIDTH 13 0
BBX 13 12 0 0
BITMAP
05400000
7ABE4000
4025E000
00242C00
00180700
00180240
00FF4180
000C0180
000C0180
000C0740
00541E00
007FE400
ENDCHAR
STARTCHAR dcroat
ENCODING 273
SWIDTH 524 0
DWIDTH 9 0
BBX 10 13 0 0
BITMAP
000800
000D00
006F80
00AB50
000740
1FD340
396B40
700B80
A00380
900780
601E80
35B5C0
1F9040
ENDCHAR
STARTCHAR Emacron
ENCODING 274
SWIDTH 524 0
DWIDTH 9 0
BBX 9 14 0 0
BITMAP
06A400
065400
000000
7FFE00
600000
600000
600000
A6BD00
A54000
900000
900000
900000
615640
2FFE00
ENDCHAR
STARTCHAR emacron
ENCODING 275
SWIDTH 515 0
DWIDTH 9 0
BBX 9 12 0 0
BITMAP
06A400
065400
014000
0AB000
242400
601800
907400
AB9000
900000
300000
1D4140
02FE00
ENDCHAR
STARTCHAR Ebreve
ENCODING 276
SWIDTH 524 0
DWIDTH 9 0
BBX 9 14 0 0
BITMAP
012000
019000
000000
7FFE00
600000
600000
600000
A6BD00
A54000
900000
900000
900000
615640
2FFE00
ENDCHAR
STARTCHAR ebreve
ENCODING 277
SWIDTH 515 0
DWIDTH 9 0
BBX 9 12 0 0
BITMAP
011800
00A000
014000
0AB000
242400
601800
907400
AB9000
900000
300000
1D4140
02FE00
ENDCHAR
STARTCHAR Edotaccent
ENCODING 278
SWIDTH 524 0
DWIDTH 9 0
BBX 9 14 0 0
BITMAP
008000
008000
000000
7FFE00
600000
600000
600000
A6BD00
A54000
900000
900000
900000
615640
2FFE00
ENDCHAR
STARTCHAR edotaccent
ENCODING 279
SWIDTH 515 0
DWIDTH 9 0
BBX 9 12 0 0
BITMAP
024000
014000
014000
0AB000
242400
601800
907400
AB9000
900000
300000
1D4140
02FE00
ENDCHAR
STARTCHAR Eogonek
ENCODING 280
SWIDTH 524 0
DWIDTH 9 0
BBX 9 14 0 -3
BITMAP
7FFE00
600000
600000
600000
A6BD00
A54000
900000
900000
900000
615640
2FFE00
003000
006400
001600
ENDCHAR
STARTCHAR eogonek
ENCODING 281
SWIDTH 515 0
DWIDTH 9 0
BBX 9 13 0 -3
BITMAP
014000
0AB000
242400
601800
907400
AB9000
900000
300000
1D4140
02FE00
006000
006400
001500
ENDCHAR
STARTCHAR Ecaron
ENCODING 282
SWIDTH 524 0
DWIDTH 9 0
BBX 9 14 0 0
BITMAP
065800
00E400
000000
7FFE00
600000
600000
600000
A6BD00
A54000
900000
900000
900000
615640
2FFE00
ENDCHAR
STARTCHAR ecaron
ENCODING 283
SWIDTH 515 0
DWIDTH 9 0
BBX 9 12 0 0
BITMAP
061800
00E000
014000
0AB000
242400
601800
907400
AB9000
900000
300000
1D4140
02FE00
ENDCHAR
STARTCHAR Gcircumflex
ENCODING 284
SWIDTH 571 0
DWIDTH 10 0
BBX 10 15 0 -1
BITMAP
000D00
001F40
0076C0
004040
000140
006A90
028000
0D0000
240000
606AD0
500050
600090
2916D0
0AA590
000070
ENDCHAR
STARTCHAR gcircumflex
ENCODING 285
SWIDTH 366 0
DWIDTH 7 0
BBX 10 22 -3 -9
BITMAP
000D00
002F00
00A280
004040
000000
000500
002A40
009180
0180C0
0240D0
0241D0
01EBD0
0064D0
000090
000090
000060
000060
600060
600090
2900D0
07E680
006A00
ENDCHAR
STARTCHAR Gbreve
ENCODING 286
SWIDTH 571 0
DWIDTH 10 0
BBX 10 13 0 -1
BITMAP
014800
00A000
000140
006A90
028000
0D0000
240000
606AD0
500050
600090
2916D0
0AA590
000070
ENDCHAR
STARTCHAR gbreve
ENCODING 287
SWIDTH 366 0
DWIDTH 7 0
BBX 10 19 -3 -9
BITMAP
005200
002900
000500
002A40
009180
0180C0
0240D0
0241D0
01EBD0
0064D0
000090
000090
000060
000060
600060
600090
2900D0
07E680
006A00
ENDCHAR
STARTCHAR Gdotaccent
ENCODING 288
SWIDTH 571 0
DWIDTH 10 0
BBX 10 13 0 -1
BITMAP
001800
000800
000140
006A90
028000
0D0000
240000
606AD0
500050
600090
2916D0
0AA590
000070
ENDCHAR
STARTCHAR gdotaccent
ENCODING 289
SWIDTH 366 0
DWIDTH 7 0
BBX 10 19 -3 -9
BITMAP
001800
000400
000500
002A40
009180
0180C0
0240D0
0241D0
01EBD0
0064D0
000090
000090
000060
000060
600060
600090
2900D0
07E680
006A00
ENDCHAR
STARTCHAR Gcommaaccent
ENCODING 290
SWIDTH 571 0
DWIDTH 10 0
BBX 10 16 0 -6
BITMAP
000140
006A90
028000
0D0000
240000
606AD0
500050
600090
2916D0
0AA590
000070
000000
00A000
006000
006000
005000
ENDCHAR
STARTCHAR gcommaaccent
ENCODING 291
SWIDTH 366 0
DWIDTH 7 0
BBX 10 25 -3 -9
BITMAP
001400
001800
001C00
000C00
000000
000000
000000
000000
000500
002A40
009180
0180C0
0240D0
0241D0
01EBD0
0064D0
000090
000090
000060
000060
600060
600090
2900D0
07E680
006A00
ENDCHAR
STARTCHAR Hcircumflex
ENCODING 292
SWIDTH 524 0
DWIDTH 9 0
BBX 9 17 0 0
BITMAP
00A000
01F400
076C00
050400
000000
500240
500240
600240
600240
200240
302F40
36D240
7D0240
340180
240180
240180
140080
ENDCHAR
STARTCHAR hcircumflex
ENCODING 293
SWIDTH 427 0
DWIDTH 8 0
BBX 7 14 0 0
BITMAP
01C0
43E0
CA74
D414
9000
6000
7FD0
3570
3018
3008
300C
240C
240C
2418
ENDCHAR
STARTCHAR hbar
ENCODING 295
SWIDTH 427 0
DWIDTH 8 0
BBX 9 13 -2 0
BITMAP
040000
0C0000
0D0000
7FC000
160000
07FD00
035700
030180
030080
0300C0
0240C0
0240C0
024180
ENDCHAR
STARTCHAR Itilde
ENCODING 296
SWIDTH 167 0
DWIDTH 3 0
BBX 7 13 -2 0
BITMAP
2904
62A0
5000
0800
0900
0600
0300
0300
0240
0240
0280
0180
0180
ENDCHAR
STARTCHAR itilde
ENCODING 297
SWIDTH 174 0
DWIDTH 3 0
BBX 7 12 -1 0
BITMAP
6824
86D0
4000
0000
0800
0C00
0C00
0900
0900
0A00
0600
0600
ENDCHAR
STARTCHAR imacron
ENCODING 299
SWIDTH 174 0
DWIDTH 3 0
BBX 5 11 -1 0
BITMAP
6A80
5540
0000
0800
0C00
0C00
0900
0900
0A00
0600
0600
ENDCHAR
STARTCHAR Ibreve
ENCODING 300
SWIDTH 167 0
DWIDTH 3 0
BBX 4 14 0 0
BITMAP
89
64
00
00
80
90
60
30
30
24
24
28
18
18
ENDCHAR
STARTCHAR ibreve
ENCODING 301
SWIDTH 174 0
DWIDTH 3 0
BBX 3 11 0 0
BITMAP
48
A4
00
20
30
30
24
24
28
18
18
ENDCHAR
STARTCHAR Iogonek
ENCODING 302
SWIDTH 167 0
DWIDTH 3 0
BBX 4 13 0 -3
BITMAP
80
90
60
30
30
24
24
28
18
28
90
D0
19
ENDCHAR
STARTCHAR iogonek
ENCODING 303
SWIDTH 174 0
DWIDTH 3 0
BBX 4 14 -1 -3
BITMAP
20
10
00
08
0C
0C
09
09
0A
06
1A
34
70
1A
ENDCHAR
STARTCHAR Idotaccent
ENCODING 304
SWIDTH 167 0
DWIDTH 3 0
BBX 3 13 0 0
BITMAP
80
80
00
80
90
60
30
30
24
24
28
18
18
ENDCHAR
STARTCHAR dotlessi
ENCODING 305
SWIDTH 174 0
DWIDTH 3 0
BBX 2 8 1 0
BITMAP
80
C0
C0
90
90
A0
60
60
ENDCHAR
STARTCHAR Jcircumflex
ENCODING 308
SWIDTH 439 0
DWIDTH 8 0
BBX 9 17 0 0
BITMAP
002800
003E00
00D740
014100
000400
001800
000C00
000C00
000D00
000900
000900
900600
600600
240600
090900
024900
00B800
ENDCHAR
STARTCHAR jcircumflex
ENCODING 309
SWIDTH 200 0
DWIDTH 4 0
BBX 6 21 -2 -8
BITMAP
0280
07D0
1D70
1410
0000
0000
0240
0180
01C0
00C0
00D0
0090
00A0
0060
0070
8030
9030
6030
2430
0EB0
02D0
ENDCHAR
STARTCHAR Kcommaaccent
ENCODING 310
SWIDTH 468 0
DWIDTH 8 0
BBX 8 17 0 -6
BITMAP
4010
90A0
9280
5A00
6800
7400
3800
2A00
31D0
3068
200A
0000
0000
0180
01C0
0180
0140
ENDCHAR
STARTCHAR kcommaaccent
ENCODING 311
SWIDTH 403 0
DWIDTH 7 0
BBX 7 17 0 -6
BITMAP
8000
8000
9000
90A0
6180
7600
3C00
3800
3D00
3794
3068
0000
0000
0300
0240
0300
0200
ENDCHAR
STARTCHAR Lacute
ENCODING 313
SWIDTH 346 0
DWIDTH 6 0
BBX 6 13 0 0
BITMAP
0050
0280
0600
1000
3000
6000
6000
A000
9000
9000
9000
6500
1FE0
ENDCHAR
STARTCHAR lacute
ENCODING 314
SWIDTH 120 0
DWIDTH 2 0
BBX 4 14 -1 0
BITMAP
05
28
60
00
14
28
28
28
28
28
28
18
18
14
ENDCHAR
STARTCHAR Lcommaaccent
ENCODING 315
SWIDTH 346 0
DWIDTH 6 0
BBX 6 16 0 -6
BITMAP
1000
3000
6000
6000
A000
9000
9000
9000
6500
1FE0
0000
0000
0A00
0600
0600
0500
ENDCHAR
STARTCHAR lcommaaccent
ENCODING 316
SWIDTH 120 0
DWIDTH 2 0
BBX 2 16 0 -6
BITMAP
50
A0
A0
A0
A0
A0
A0
60
60
50
00
00
A0
60
A0
50
ENDCHAR
STARTCHAR Lcaron
ENCODING 317
SWIDTH 346 0
DWIDTH 6 0
BBX 6 13 0 0
BITMAP
0200
0300
0240
1240
3000
6000
6000
A000
9000
9000
9000
6500
1FE0
ENDCHAR
STARTCHAR lcaron
ENCODING 318
SWIDTH 222 0
DWIDTH 4 0
BBX 4 13 0 0
BITMAP
05
06
06
56
A0
A0
A0
A0
A0
A0
60
60
50
ENDCHAR
STARTCHAR Ldot
ENCODING 319
SWIDTH 346 0
DWIDTH 6 0
BBX 6 10 0 0
BITMAP
1000
3000
6000
6000
A000
9B00
9A00
9000
6500
1FE0
ENDCHAR
STARTCHAR ldot
ENCODING 320
SWIDTH 333 0
DWIDTH 6 0
BBX 5 10 0 0
BITMAP
5000
A000
A000
A000
A000
A2C0
A280
6000
6000
5000
ENDCHAR
STARTCHAR Lslash
ENCODING 321
SWIDTH 346 0
DWIDTH 6 0
BBX 7 10 0 0
BITMAP
0400
1800
2800
2400
2400
2D00
B400
7400
2950
06F4
ENDCHAR
STARTCHAR lslash
ENCODING 322
SWIDTH 120 0
DWIDTH 2 0
BBX 4 11 -1 0
BITMAP
04
18
18
18
1E
2D
AC
1C
18
18
04
ENDCHAR
STARTCHAR Nacute
ENCODING 323
SWIDTH 609 0
DWIDTH 11 0
BBX 11 13 0 0
BITMAP
001400
00A000
018000
100000
600180
3000D0
3400A0
780030
690024
670024
628024
60B5A0
601A80
ENDCHAR
STARTCHAR nacute
ENCODING 324
SWIDTH 459 0
DWIDTH 8 0
BBX 8 12 0 0
BITMAP
0080
0740
0900
0000
06E0
7928
700C
600A
6006
7007
3407
1406
ENDCHAR
STARTCHAR Ncommaaccent
ENCODING 325
SWIDTH 609 0
DWIDTH 11 0
BBX 11 16 0 -6
BITMAP
100000
600180
3000D0
3400A0
780030
690024
670024
628024
60B5A0
601A80
000000
000000
007000
003000
003000
001000
ENDCHAR
STARTCHAR ncommaaccent
ENCODING 326
SWIDTH 459 0
DWIDTH 8 0
BBX 8 14 0 -6
BITMAP
06E0
7928
700C
600A
6006
7007
3407
1406
0000
0000
0280
0180
0180
0140
ENDCHAR
STARTCHAR Ncaron
ENCODING 327
SWIDTH 609 0
DWIDTH 11 0
BBX 11 14 0 0
BITMAP
018600
007800
000000
000000
100000
600180
3000D0
3400A0
780030
690024
670024
628024
60B5A0
601A80
ENDCHAR
STARTCHAR ncaron
ENCODING 328
SWIDTH 459 0
DWIDTH 8 0
BBX 8 11 0 0
BITMAP
0924
02D0
0000
06E0
7928
700C
600A
6006
7007
3407
1406
ENDCHAR
STARTCHAR napostrophe
ENCODING 329
SWIDTH 459 0
DWIDTH 8 0
BBX 8 12 0 0
BITMAP
1800
0C00
1800
1400
06E0
7928
700C
600A
6006
7007
3407
1406
ENDCHAR
STARTCHAR Omacron
ENCODING 332
SWIDTH 609 0
DWIDTH 11 0
BBX 11 13 0 0
BITMAP
01A900
029500
000000
000000
069000
29AD00
600780
9000A0
900030
600024
340024
1E01A0
06FE40
ENDCHAR
STARTCHAR omacron
ENCODING 333
SWIDTH 487 0
DWIDTH 9 0
BBX 9 10 0 0
BITMAP
06A400
095400
000000
06F800
291E00
600300
900240
900700
342D00
0BE400
ENDCHAR
STARTCHAR Obreve
ENCODING 334
SWIDTH 609 0
DWIDTH 11 0
BBX 11 12 0 0
BITMAP
004800
006400
000000
069000
29AD00
600780
9000A0
900030
600024
340024
1E01A0
06FE40
ENDCHAR
STARTCHAR obreve
ENCODING 335
SWIDTH 487 0
DWIDTH 9 0
BBX 9 11 0 0
BITMAP
085000
068000
000000
000000
06F800
291E00
600300
900240
900700
342D00
0BE400
ENDCHAR
STARTCHAR Ohungarumlaut
ENCODING 336
SWIDTH 609 0
DWIDTH 11 0
BBX 11 13 0 0
BITMAP
01D800
026800
001000
000000
069000
29AD00
600780
9000A0
900030
600024
340024
1E01A0
06FE40
ENDCHAR
STARTCHAR ohungarumlaut
ENCODING 337
SWIDTH 487 0
DWIDTH 9 0
BBX 9 10 0 0
BITMAP
076000
099000
004000
06F800
291E00
600300
900240
900700
342D00
0BE400
ENDCHAR
STARTCHAR OE
ENCODING 338
SWIDTH 848 0
DWIDTH 15 0
BBX 15 9 0 0
BITMAP
06915550
297B5554
601F0000
900B0150
9007A940
60060000
34060000
1E4E0000
06FAFFE4
ENDCHAR
STARTCHAR oe
ENCODING 339
SWIDTH 875 0
DWIDTH 16 0
BBX 15 10 0 -1
BITMAP
00001A00
0150A5C0
1EBD8090
340B4090
90034680
9003A900
A0074000
342ED000
0BE47A68
00000690
ENDCHAR
STARTCHAR Racute
ENCODING 340
SWIDTH 579 0
DWIDTH 10 0
BBX 10 16 0 -1
BITMAP
000800
007400
009000
014000
BABE00
8002C0
440090
0801D0
0A6F40
0B9400
074000
06C000
026400
020900
010280
000060
ENDCHAR
STARTCHAR racute
ENCODING 341
SWIDTH 346 0
DWIDTH 6 0
BBX 6 12 0 0
BITMAP
0180
0700
0800
0000
5BE0
A010
9000
6000
6000
3000
2400
1400
ENDCHAR
STARTCHAR Rcommaaccent
ENCODING 342
SWIDTH 579 0
DWIDTH 10 0
BBX 10 18 0 -6
BITMAP
014000
BABE00
8002C0
440090
0801D0
0A6F40
0B9400
074000
06C000
026400
020900
010280
000060
000000
006000
003000
006000
005000
ENDCHAR
STARTCHAR rcommaaccent
ENCODING 343
SWIDTH 346 0
DWIDTH 6 0
BBX 6 14 0 -6
BITMAP
5BE0
A010
9000
6000
6000
3000
2400
1400
0000
0000
0A00
0600
0600
0500
ENDCHAR
STARTCHAR Rcaron
ENCODING 344
SWIDTH 579 0
DWIDTH 10 0
BBX 10 16 0 -1
BITMAP
024900
00B400
000000
014000
BABE00
8002C0
440090
0801D0
0A6F40
0B9400
074000
06C000
026400
020900
010280
000060
ENDCHAR
STARTCHAR rcaron
ENCODING 345
SWIDTH 346 0
DWIDTH 6 0
BBX 6 11 0 0
BITMAP
2490
0B40
0100
5BE0
A010
9000
6000
6000
3000
2400
1400
ENDCHAR
STARTCHAR Sacute
ENCODING 346
SWIDTH 627 0
DWIDTH 11 0
BBX 11 15 0 0
BITMAP
000800
007400
009000
000000
01AA40
0641E0
090000
060000
01D000
002D00
0002D0
900064
600018
190028
02FFE0
ENDCHAR
STARTCHAR sacute
ENCODING 347
SWIDTH 514 0
DWIDTH 9 0
BBX 9 13 0 0
BITMAP
001400
00A000
014000
000000
000000
2EE000
602400
201000
1AA400
005B40
000280
740280
1BFE00
ENDCHAR
STARTCHAR Scircumflex
ENCODING 348
SWIDTH 627 0
DWIDTH 11 0
BBX 11 16 0 0
BITMAP
002800
007D00
01DB00
014100
000000
01AA40
0641E0
090000
060000
01D000
002D00
0002D0
900064
600018
190028
02FFE0
ENDCHAR
STARTCHAR scircumflex
ENCODING 349
SWIDTH 514 0
DWIDTH 9 0
BBX 9 13 0 0
BITMAP
009000
01F400
076C00
040400
000000
2EE000
602400
201000
1AA400
005B40
000280
740280
1BFE00
ENDCHAR
STARTCHAR Scedilla
ENCODING 350
SWIDTH 627 0
DWIDTH 11 0
BBX 11 17 0 -6
BITMAP
01AA40
0641E0
090000
060000
01D000
002D00
0002D0
900064
600018
190028
02FFE0
014000
009000
006900
010300
01D600
001400
ENDCHAR
STARTCHAR scedilla
ENCODING 351
SWIDTH 514 0
DWIDTH 9 0
BBX 9 14 0 -6
BITMAP
2EE000
602400
201000
1AA400
005B40
000280
740280
1BFE00
050000
064000
01A400
040C00
075800
005000
ENDCHAR
STARTCHAR Scaron
ENCODING 352
SWIDTH 627 0
DWIDTH 11 0
BBX 11 14 0 0
BITMAP
018600
003800
000000
01AA40
0641E0
090000
060000
01D000
002D00
0002D0
900064
600018
190028
02FFE0
ENDCHAR
STARTCHAR scaron
ENCODING 353
SWIDTH 514 0
DWIDTH 9 0
BBX 9 11 0 0
BITMAP
061800
00E000
004000
2EE000
602400
201000
1AA400
005B40
000280
740280
1BFE00
ENDCHAR
STARTCHAR Tcommaaccent
ENCODING 354
SWIDTH 581 0
DWIDTH 10 0
BBX 12 18 0 -6
BITMAP
550000
6BFFE9
001816
001800
001800
001800
000C00
000C00
000D00
000900
000A00
000700
000000
000000
000A00
000600
000600
000500
ENDCHAR
STARTCHAR tcommaaccent
ENCODING 355
SWIDTH 328 0
DWIDTH 6 0
BBX 6 17 0 -6
BITMAP
0900
0900
0900
0900
BFE0
0A00
0A00
0A00
0A00
0600
0200
0000
0000
0900
0600
0900
0800
ENDCHAR
STARTCHAR Tcaron
ENCODING 356
SWIDTH 581 0
DWIDTH 10 0
BBX 12 14 0 0
BITMAP
024900
007800
555000
6BFFE9
001816
001800
001800
001800
000C00
000C00
000D00
000900
000A00
000700
ENDCHAR
STARTCHAR tcaron
ENCODING 357
SWIDTH 431 0
DWIDTH 8 0
BBX 8 13 0 0
BITMAP
0008
0009
0909
0905
0900
0900
BFE0
0A00
0A00
0A00
0A00
0600
0200
ENDCHAR
STARTCHAR Utilde
ENCODING 360
SWIDTH 571 0
DWIDTH 10 0
BBX 10 13 0 0
BITMAP
064140
086A00
040000
200100
600240
500240
500240
500180
6000C0
3000D0
2402E0
1D5D70
07E010
ENDCHAR
STARTCHAR utilde
ENCODING 361
SWIDTH 501 0
DWIDTH 9 0
BBX 9 12 0 0
BITMAP
064200
18AD00
040000
500000
900900
900A00
900A00
600A00
301F00
187740
0BD280
000040
ENDCHAR
STARTCHAR Umacron
ENCODING 362
SWIDTH 571 0
DWIDTH 10 0
BBX 10 13 0 0
BITMAP
01A800
025500
000000
200100
600240
500240
500240
500180
6000C0
3000D0
2402E0
1D5D70
07E010
ENDCHAR
STARTCHAR umacron
ENCODING 363
SWIDTH 501 0
DWIDTH 9 0
BBX 9 11 0 0
BITMAP
06A000
095000
500000
900900
900A00
900A00
600A00
301F00
187740
0BD280
000040
ENDCHAR
STARTCHAR Ubreve
ENCODING 364
SWIDTH 571 0
DWIDTH 10 0
BBX 10 12 0 0
BITMAP
014800
00A000
200100
600240
500240
500240
500180
6000C0
3000D0
2402E0
1D5D70
07E010
ENDCHAR
STARTCHAR ubreve
ENCODING 365
SWIDTH 501 0
DWIDTH 9 0
BBX 9 11 0 0
BITMAP
046000
028000
500000
900900
900A00
900A00
600A00
301F00
187740
0BD280
000040
ENDCHAR
STARTCHAR Uring
ENCODING 366
SWIDTH 571 0
DWIDTH 10 0
BBX 10 14 0 0
BITMAP
001000
016400
021800
00A000
200100
600240
500240
500240
500180
6000C0
3000D0
2402E0
1D5D70
07E010
ENDCHAR
STARTCHAR uring
ENCODING 367
SWIDTH 501 0
DWIDTH 9 0
BBX 9 11 0 0
BITMAP
004000
026000
552000
929900
900A00
900A00
600A00
301F00
187740
0BD280
000040
ENDCHAR
STARTCHAR Uhungarumlaut
ENCODING 368
SWIDTH 571 0
DWIDTH 10 0
BBX 10 13 0 0
BITMAP
019800
023400
000000
200100
600240
500240
500240
500180
6000C0
3000D0
2402E0
1D5D70
07E010
ENDCHAR
STARTCHAR uhungarumlaut
ENCODING 369
SWIDTH 501 0
DWIDTH 9 0
BBX 9 12 0 0
BITMAP
019800
023400
001000
500000
900900
900A00
900A00
600A00
301F00
187740
0BD280
000040
ENDCHAR
STARTCHAR Uogonek
ENCODING 370
SWIDTH 571 0
DWIDTH 10 0
BBX 11 12 0 -3
BITMAP
240140
600280
600280
600180
6000C0
3000C0
2400E0
1802F0
0A6D70
02A190
000240
0001A4
ENDCHAR
STARTCHAR uogonek
ENCODING 371
SWIDTH 501 0
DWIDTH 9 0
BBX 9 12 0 -3
BITMAP
400000
900400
900A00
900A00
600A00
300E00
282B00
0AE240
014680
000C00
000D40
000140
ENDCHAR
STARTCHAR Wcircumflex
ENCODING 372
SWIDTH 703 0
DWIDTH 13 0
BBX 13 16 0 0
BITMAP
000D0000
002F0000
00A28000
00404000
00000000
00000000
00000000
80000800
90000D00
90000A00
90100700
90300340
60340240
707C0340
2ADA5A00
0A01F400
ENDCHAR
STARTCHAR wcircumflex
ENCODING 373
SWIDTH 656 0
DWIDTH 12 0
BBX 12 13 0 0
BITMAP
002800
003E00
00D740
014100
000000
100000
500010
901418
90180C
902809
602C0D
25BA6C
0B82A4
ENDCHAR
STARTCHAR Ycircumflex
ENCODING 374
SWIDTH 403 0
DWIDTH 7 0
BBX 7 16 0 0
BITMAP
0240
07D0
1DB0
1010
4000
9008
7008
2828
07B4
01B0
00A0
00C0
00C0
0180
0140
0180
ENDCHAR
STARTCHAR ycircumflex
ENCODING 375
SWIDTH 487 0
DWIDTH 9 0
BBX 9 22 0 -9
BITMAP
00D000
02F000
0A2800
040400
000000
400100
800200
900300
600300
300340
240740
0E6A40
019140
000140
000140
000140
000240
000240
200300
280600
0B5D00
01A400
ENDCHAR
STARTCHAR Ydieresis
ENCODING 376
SWIDTH 403 0
DWIDTH 7 0
BBX 7 14 0 0
BITMAP
0410
2CB0
4400
9008
7008
2828
07B4
01B0
00A0
00C0
00C0
0180
0140
0180
ENDCHAR
STARTCHAR Zacute
ENCODING 377
SWIDTH 571 0
DWIDTH 10 0
BBX 10 15 0 0
BITMAP
001400
00A000
008000
000000
7AE000
401800
000900
000900
001C00
06BFC0
05B400
009000
018000
0346A0
02FE40
ENDCHAR
STARTCHAR zacute
ENCODING 378
SWIDTH 459 0
DWIDTH 8 0
BBX 8 13 0 0
BITMAP
0080
0340
0500
0540
7AA0
5030
0030
0060
6FE8
0740
0D00
1D5A
0BE8
ENDCHAR
STARTCHAR Zdotaccent
ENCODING 379
SWIDTH 571 0
DWIDTH 10 0
BBX 10 14 0 0
BITMAP
018000
004000
000000
7AE000
401800
000900
000900
001C00
06BFC0
05B400
009000
018000
0346A0
02FE40
ENDCHAR
STARTCHAR zdotaccent
ENCODING 380
SWIDTH 459 0
DWIDTH 8 0
BBX 8 12 0 0
BITMAP
0180
0080
0540
7AA0
5030
0030
0060
6FE8
0740
0D00
1D5A
0BE8
ENDCHAR
STARTCHAR Zcaron
ENCODING 381
SWIDTH 571 0
DWIDTH 10 0
BBX 10 14 0 0
BITMAP
061800
01E000
000000
7AE000
401800
000900
000900
001C00
06BFC0
05B400
009000
018000
0346A0
02FE40
ENDCHAR
STARTCHAR zcaron
ENCODING 382
SWIDTH 459 0
DWIDTH 8 0
BBX 8 12 0 0
BITMAP
18A0
0780
0540
7AA0
5030
0030
0060
6FE8
0740
0D00
1D5A
0BE8
ENDCHAR
STARTCHAR florin
ENCODING 402
SWIDTH 376 0
DWIDTH 7 0
BBX 10 18 -2 -5
BITMAP
001A40
0075D0
009070
00C000
018000
01C000
01C000
0AEA00
05D500
00C000
00C000
00C000
00C000
00C000
40C000
71C000
1E8000
024000
ENDCHAR
STARTCHAR AEacute
ENCODING 508
SWIDTH 960 0
DWIDTH 17 0
BBX 17 16 0 0
BITMAP
0000180000
0000740000
01A0800000
095D000000
1806000000
20027FFA40
2001B00000
2000F00000
2000B00000
2000BABE00
7EAAF50000
3000A00000
3000600000
3000600000
2400A55640
1400AFFA40
ENDCHAR
STARTCHAR aeacute
ENCODING 509
SWIDTH 881 0
DWIDTH 16 0
BBX 16 14 0 -1
BITMAP
00006000
0001C000
00020000
00000000
07D01A40
0068A0D0
000E8050
05574090
2A6F5B80
A007A400
90018000
7556E000
0BF92EA9
00000150
ENDCHAR
STARTCHAR Oslashacute
ENCODING 510
SWIDTH 609 0
DWIDTH 11 0
BBX 11 15 0 -2
BITMAP
000400
007000
00C000
000000
069500
29AD00
600A80
9014A0
902030
606024
349024
1EC1A0
07FE40
030000
010000
ENDCHAR
STARTCHAR oslashacute
ENCODING 511
SWIDTH 487 0
DWIDTH 9 0
BBX 9 11 0 0
BITMAP
002000
01D000
020000
015100
1EBD00
341E00
903700
90A340
618700
3B6D00
1FE400
ENDCHAR
STARTCHAR Scommaaccent
ENCODING 536
SWIDTH 627 0
DWIDTH 11 0
BBX 11 17 0 -6
BITMAP
01AA40
0641E0
090000
060000
01D000
002D00
0002D0
900064
600018
190028
02FFE0
000000
000000
006000
003000
006000
005000
ENDCHAR
STARTCHAR scommaaccent
ENCODING 537
SWIDTH 514 0
DWIDTH 9 0
BBX 9 14 0 -6
BITMAP
2EE000
602400
201000
1AA400
005B40
000280
740280
1BFE00
000000
000000
00C000
009000
00C000
008000
ENDCHAR
STARTCHAR circumflex
ENCODING 710
SWIDTH 375 0
DWIDTH 7 0
BBX 5 4 1 9
BITMAP
0D00
2F00
A280
4040
ENDCHAR
STARTCHAR caron
ENCODING 711
SWIDTH 375 0
DWIDTH 7 0
BBX 5 2 1 9
BITMAP
A280
1E00
ENDCHAR
STARTCHAR breve
ENCODING 728
SWIDTH 224 0
DWIDTH 4 0
BBX 4 2 0 7
BITMAP
46
28
ENDCHAR
STARTCHAR dotaccent
ENCODING 729
SWIDTH 152 0
DWIDTH 3 0
BBX 1 2 1 8
BITMAP
80
80
ENDCHAR
STARTCHAR ring
ENCODING 730
SWIDTH 333 0
DWIDTH 6 0
BBX 4 4 1 7
BITMAP
04
26
52
29
ENDCHAR
STARTCHAR ogonek
ENCODING 731
SWIDTH 254 0
DWIDTH 5 0
BBX 4 4 0 -3
BITMAP
18
60
60
1A
ENDCHAR
STARTCHAR tilde
ENCODING 732
SWIDTH 402 0
DWIDTH 7 0
BBX 7 3 0 7
BITMAP
2814
96A0
4000
ENDCHAR
STARTCHAR hungarumlaut
ENCODING 733
SWIDTH 264 0
DWIDTH 5 0
BBX 5 2 0 8
BITMAP
2540
6600
ENDCHAR
STARTCHAR Wgrave
ENCODING 7808
SWIDTH 703 0
DWIDTH 13 0
BBX 13 13 0 0
BITMAP
00180000
000A0000
00000000
00000000
80000800
90000D00
90000A00
90100700
90300340
60340240
707C0340
2ADA5A00
0A01F400
ENDCHAR
STARTCHAR wgrave
ENCODING 7809
SWIDTH 656 0
DWIDTH 12 0
BBX 12 10 0 0
BITMAP
002400
000D00
100000
500010
901418
90180C
902809
602C0D
25BA6C
0B82A4
ENDCHAR
STARTCHAR Wacute
ENCODING 7810
SWIDTH 703 0
DWIDTH 13 0
BBX 13 13 0 0
BITMAP
00050000
00280000
00500000
00000000
80000800
90000D00
90000A00
90100700
90300340
60340240
707C0340
2ADA5A00
0A01F400
ENDCHAR
STARTCHAR wacute
ENCODING 7811
SWIDTH 656 0
DWIDTH 12 0
BBX 12 12 0 0
BITMAP
000900
002800
005000
000000
100000
500010
901418
90180C
902809
602C0D
25BA6C
0B82A4
ENDCHAR
STARTCHAR Wdieresis
ENCODING 7812
SWIDTH 703 0
DWIDTH 13 0
BBX 13 13 0 0
BITMAP
00510000
00E38000
00010000
00000000
80000800
90000D00
90000A00
90100700
90300340
60340240
707C0340
2ADA5A00
0A01F400
ENDCHAR
STARTCHAR wdieresis
ENCODING 7813
SWIDTH 656 0
DWIDTH 12 0
BBX 12 10 0 0
BITMAP
004100
01DB00
104100
500010
901418
90180C
902809
602C0D
25BA6C
0B82A4
ENDCHAR
STARTCHAR Ygrave
ENCODING 7922
SWIDTH 403 0
DWIDTH 7 0
BBX 7 15 0 0
BITMAP
0600
0280
0000
4000
9008
7008
2828
07B4
01B0
00A0
00C0
00C0
0180
0140
0180
ENDCHAR
STARTCHAR ygrave
ENCODING 7923
SWIDTH 487 0
DWIDTH 9 0
BBX 9 19 0 -9
BITMAP
018000
00A000
400100
800200
900300
600300
300340
240740
0E6A40
019140
000140
000140
000140
000240
000240
200300
280600
0B5D00
01A400
ENDCHAR
STARTCHAR endash
ENCODING 8211
SWIDTH 287 0
DWIDTH 5 0
BBX 5 2 0 4
BITMAP
6A40
6540
ENDCHAR
STARTCHAR emdash
ENCODING 8212
SWIDTH 512 0
DWIDTH 9 0
BBX 9 2 0 4
BITMAP
16AA40
695540
ENDCHAR
STARTCHAR quoteleft
ENCODING 8216
SWIDTH 102 0
DWIDTH 2 0
BBX 2 4 0 9
BITMAP
80
90
90
60
ENDCHAR
STARTCHAR quoteright
ENCODING 8217
SWIDTH 102 0
DWIDTH 2 0
BBX 2 4 0 9
BITMAP
80
90
90
60
ENDCHAR
STARTCHAR quotesinglbase
ENCODING 8218
SWIDTH 102 0
DWIDTH 2 0
BBX 2 5 0 -1
BITMAP
40
90
A0
60
10
ENDCHAR
STARTCHAR quotedblleft
ENCODING 8220
SWIDTH 234 0
DWIDTH 4 0
BBX 4 5 0 9
BITMAP
85
96
96
66
26
ENDCHAR
STARTCHAR quotedblright
ENCODING 8221
SWIDTH 234 0
DWIDTH 4 0
BBX 4 5 0 9
BITMAP
85
96
96
66
26
ENDCHAR
STARTCHAR quotedblbase
ENCODING 8222
SWIDTH 341 0
DWIDTH 6 0
BBX 4 5 1 -2
BITMAP
45
96
66
67
27
ENDCHAR
STARTCHAR dagger
ENCODING 8224
SWIDTH 375 0
DWIDTH 7 0
BBX 6 12 0 0
BITMAP
0400
0900
0500
0200
2BA0
6750
0200
0200
0240
0240
0240
0240
ENDCHAR
STARTCHAR daggerdbl
ENCODING 8225
SWIDTH 375 0
DWIDTH 7 0
BBX 9 14 -1 0
BITMAP
010000
024000
028000
018000
008000
6AEA00
55D540
009400
BFFE00
008000
009000
009000
009000
009000
ENDCHAR
STARTCHAR bullet
ENCODING 8226
SWIDTH 341 0
DWIDTH 6 0
BBX 3 4 2 3
BITMAP
10
B8
FC
B4
ENDCHAR
STARTCHAR ellipsis
ENCODING 8230
SWIDTH 612 0
DWIDTH 11 0
BBX 10 4 1 0
BITMAP
004040
F1E2D0
F1E2D0
A0D1C0
ENDCHAR
STARTCHAR guilsinglleft
ENCODING 8249
SWIDTH 487 0
DWIDTH 9 0
BBX 8 8 0 0
BITMAP
0001
000A
0074
0280
1D00
7400
BFA4
015A
ENDCHAR
STARTCHAR guilsinglright
ENCODING 8250
SWIDTH 403 0
DWIDTH 7 0
BBX 7 8 0 0
BITMAP
7400
1B90
006C
0028
00A0
0780
2D00
6000
ENDCHAR
STARTCHAR fraction
ENCODING 8260
SWIDTH 309 0
DWIDTH 6 0
BBX 6 13 0 0
BITMAP
0090
00C0
0180
0240
0300
0700
0A00
0C00
1800
2400
7000
A000
8000
ENDCHAR
STARTCHAR Euro
ENCODING 8364
SWIDTH 741 0
DWIDTH 13 0
BBX 13 13 0 0
BITMAP
00001400
0001A600
00060000
006E8000
BFFAA000
40800000
01814000
16FA9000
A7400000
02000000
01400000
00D05A80
006FE900
ENDCHAR
STARTCHAR trademark
ENCODING 8482
SWIDTH 1116 0
DWIDTH 20 0
BBX 20 11 0 0
BITMAP
BFFAA70008
00295B802C
001801D038
001801BAF8
0018018A58
000C01800C
000C02800C
000D02800D
000902800D
000A028009
000701400A
ENDCHAR
STARTCHAR minus
ENCODING 8722
SWIDTH 287 0
DWIDTH 5 0
BBX 5 2 0 4
BITMAP
6A40
6540
ENDCHAR
STARTCHAR commaaccent
ENCODING 63171
SWIDTH 375 0
DWIDTH 7 0
BBX 2 4 2 -6
BITMAP
D0
90
90
80
ENDCHAR
STARTCHAR fi
ENCODING 64257
SWIDTH 551 0
DWIDTH 10 0
BBX 8 13 0 0
BITMAP
01A4
075D
0917
0824
1800
1804
180C
AEAC
5E5C
060D
0349
01CA
0096
ENDCHAR
STARTCHAR fl
ENCODING 64258
SWIDTH 723 0
DWIDTH 13 0
BBX 8 13 0 0
BITMAP
01A4
075D
0907
0818
1818
1818
181C
AEAC
5E6C
061C
035C
01DC
0098
ENDCHAR
STARTCHAR .notdef
ENCODING -1
SWIDTH 375 0
DWIDTH 7 0
BBX 1 1 0 0
BITMAP
00
ENDCHAR
STARTCHAR .null
ENCODING -1
SWIDTH 0 0
DWIDTH 0 0
BBX 1 1 0 0
BITMAP
00
ENDCHAR
STARTCHAR nonmarkingreturn
ENCODING -1
SWIDTH 375 0
DWIDTH 7 0
BBX 1 1 0 0
BITMAP
00
ENDCHAR
ENDFONT
